<?xml version="1.0" encoding="iso-8859-1"?>
<!-- Generator: Adobe Illustrator 16.0.0, SVG Export Plug-In . SVG Version: 6.00 Build 0)  -->
<!DOCTYPE svg PUBLIC "-//W3C//DTD SVG 1.1//EN" "http://www.w3.org/Graphics/SVG/1.1/DTD/svg11.dtd">
<svg version="1.1" id="Capa_1" xmlns="http://www.w3.org/2000/svg" xmlns:xlink="http://www.w3.org/1999/xlink" x="0px" y="0px"
	 width="95.926px" height="95.926px" viewBox="0 0 95.926 95.926" style="enable-background:new 0 0 95.926 95.926;"
	 xml:space="preserve">
<g>
	<g>
		<path d="M47.893,47.221c11.768,0,21.341-10.592,21.341-23.611S59.66,0,47.893,0C36.125,0,26.55,10.592,26.55,23.61
			C26.55,36.63,36.125,47.221,47.893,47.221z"/>
		<path d="M72.477,44.123c-1.244-0.269-2.524,0.272-3.192,1.355C61.65,57.847,49.34,58.204,47.962,58.204
			s-13.687-0.357-21.32-12.722c-0.67-1.085-1.953-1.628-3.198-1.354C6.868,47.777,2.497,72.798,3.789,93.115
			c0.101,1.58,1.411,2.811,2.994,2.811h82.36c1.583,0,2.894-1.23,2.993-2.811C93.429,72.775,89.057,47.74,72.477,44.123z"/>
	</g>
</g>
<g>
</g>
<g>
</g>
<g>
</g>
<g>
</g>
<g>
</g>
<g>
</g>
<g>
</g>
<g>
</g>
<g>
</g>
<g>
</g>
<g>
</g>
<g>
</g>
<g>
</g>
<g>
</g>
<g>
</g>
</svg>
