<?xml version="1.0" encoding="utf-8"?>
<!-- Generator: Adobe Illustrator 26.1.0, SVG Export Plug-In . SVG Version: 6.00 Build 0)  -->
<svg version="1.1" id="Layer_1" xmlns="http://www.w3.org/2000/svg" xmlns:xlink="http://www.w3.org/1999/xlink" x="0px" y="0px"
	 viewBox="0 0 1248.4 351.6" style="enable-background:new 0 0 1248.4 351.6;" xml:space="preserve">
<style type="text/css">
	.st0{fill:#FFFFFF;}
	.st1{opacity:0.2;}
	.st2{fill:none;stroke:#000000;stroke-width:2.155;stroke-miterlimit:10;}
	.st3{fill:#311AFC;}
	.st4{fill:#0F8128;}
</style>
<g>
	<rect x="766.86" y="74.48" class="st0" width="192" height="192"/>
</g>
<g>
	<rect x="392.74" y="50.8" class="st0" width="250" height="250"/>
</g>
<g class="st1">
	<g>
		<rect x="770.86" y="231.28" class="st2" width="26.29" height="31.2"/>
	</g>
	<g>
		<rect x="797.14" y="231.28" class="st2" width="26.29" height="31.2"/>
	</g>
	<g>
		<rect x="823.43" y="231.28" class="st2" width="26.29" height="31.2"/>
	</g>
	<g>
		<rect x="849.72" y="231.28" class="st2" width="26.29" height="31.2"/>
	</g>
	<g>
		<rect x="876" y="231.28" class="st2" width="26.29" height="31.2"/>
	</g>
	<g>
		<rect x="902.29" y="231.28" class="st2" width="26.29" height="31.2"/>
	</g>
	<g>
		<rect x="928.57" y="231.28" class="st2" width="26.29" height="31.2"/>
	</g>
	<g>
		<rect x="770.86" y="200.08" class="st2" width="26.29" height="31.2"/>
	</g>
	<g>
		<rect x="797.14" y="200.08" class="st2" width="26.29" height="31.2"/>
	</g>
	<g>
		<rect x="823.43" y="200.08" class="st2" width="26.29" height="31.2"/>
	</g>
	<g>
		<rect x="849.72" y="200.08" class="st2" width="26.29" height="31.2"/>
	</g>
	<g>
		<rect x="876" y="200.08" class="st2" width="26.29" height="31.2"/>
	</g>
	<g>
		<rect x="902.29" y="200.08" class="st2" width="26.29" height="31.2"/>
	</g>
	<g>
		<rect x="928.57" y="200.08" class="st2" width="26.29" height="31.2"/>
	</g>
	<g>
		<rect x="770.86" y="168.88" class="st2" width="26.29" height="31.2"/>
	</g>
	<g>
		<rect x="797.14" y="168.88" class="st2" width="26.29" height="31.2"/>
	</g>
	<g>
		<rect x="823.43" y="168.88" class="st2" width="26.29" height="31.2"/>
	</g>
	<g>
		<rect x="849.72" y="168.88" class="st2" width="26.29" height="31.2"/>
	</g>
	<g>
		<rect x="876" y="168.88" class="st2" width="26.29" height="31.2"/>
	</g>
	<g>
		<rect x="902.29" y="168.88" class="st2" width="26.29" height="31.2"/>
	</g>
	<g>
		<rect x="928.57" y="168.88" class="st2" width="26.29" height="31.2"/>
	</g>
	<g>
		<rect x="770.86" y="137.68" class="st2" width="26.29" height="31.2"/>
	</g>
	<g>
		<rect x="797.14" y="137.68" class="st2" width="26.29" height="31.2"/>
	</g>
	<g>
		<rect x="823.43" y="137.68" class="st2" width="26.29" height="31.2"/>
	</g>
	<g>
		<rect x="849.72" y="137.68" class="st2" width="26.29" height="31.2"/>
	</g>
	<g>
		<rect x="876" y="137.68" class="st2" width="26.29" height="31.2"/>
	</g>
	<g>
		<rect x="902.29" y="137.68" class="st2" width="26.29" height="31.2"/>
	</g>
	<g>
		<rect x="928.57" y="137.68" class="st2" width="26.29" height="31.2"/>
	</g>
	<g>
		<rect x="770.86" y="106.48" class="st2" width="26.29" height="31.2"/>
	</g>
	<g>
		<rect x="797.14" y="106.48" class="st2" width="26.29" height="31.2"/>
	</g>
	<g>
		<rect x="823.43" y="106.48" class="st2" width="26.29" height="31.2"/>
	</g>
	<g>
		<rect x="849.72" y="106.48" class="st2" width="26.29" height="31.2"/>
	</g>
	<g>
		<rect x="876" y="106.48" class="st2" width="26.29" height="31.2"/>
	</g>
	<g>
		<rect x="902.29" y="106.48" class="st2" width="26.29" height="31.2"/>
	</g>
	<g>
		<rect x="928.57" y="106.48" class="st2" width="26.29" height="31.2"/>
	</g>
</g>
<g class="st1">
	<g>
		<rect x="396.74" y="255.8" class="st2" width="34.57" height="40"/>
	</g>
	<g>
		<rect x="431.31" y="255.8" class="st2" width="34.57" height="40"/>
	</g>
	<g>
		<rect x="465.88" y="255.8" class="st2" width="34.57" height="40"/>
	</g>
	<g>
		<rect x="500.46" y="255.8" class="st2" width="34.57" height="40"/>
	</g>
	<g>
		<rect x="535.03" y="255.8" class="st2" width="34.57" height="40"/>
	</g>
	<g>
		<rect x="569.6" y="255.8" class="st2" width="34.57" height="40"/>
	</g>
	<g>
		<rect x="604.17" y="255.8" class="st2" width="34.57" height="40"/>
	</g>
	<g>
		<rect x="396.74" y="215.8" class="st2" width="34.57" height="40"/>
	</g>
	<g>
		<rect x="431.31" y="215.8" class="st2" width="34.57" height="40"/>
	</g>
	<g>
		<rect x="465.88" y="215.8" class="st2" width="34.57" height="40"/>
	</g>
	<g>
		<rect x="500.46" y="215.8" class="st2" width="34.57" height="40"/>
	</g>
	<g>
		<rect x="535.03" y="215.8" class="st2" width="34.57" height="40"/>
	</g>
	<g>
		<rect x="569.6" y="215.8" class="st2" width="34.57" height="40"/>
	</g>
	<g>
		<rect x="604.17" y="215.8" class="st2" width="34.57" height="40"/>
	</g>
	<g>
		<rect x="396.74" y="175.8" class="st2" width="34.57" height="40"/>
	</g>
	<g>
		<rect x="431.31" y="175.8" class="st2" width="34.57" height="40"/>
	</g>
	<g>
		<rect x="465.88" y="175.8" class="st2" width="34.57" height="40"/>
	</g>
	<g>
		<rect x="500.46" y="175.8" class="st2" width="34.57" height="40"/>
	</g>
	<g>
		<rect x="535.03" y="175.8" class="st2" width="34.57" height="40"/>
	</g>
	<g>
		<rect x="569.6" y="175.8" class="st2" width="34.57" height="40"/>
	</g>
	<g>
		<rect x="604.17" y="175.8" class="st2" width="34.57" height="40"/>
	</g>
	<g>
		<rect x="396.74" y="135.8" class="st2" width="34.57" height="40"/>
	</g>
	<g>
		<rect x="431.31" y="135.8" class="st2" width="34.57" height="40"/>
	</g>
	<g>
		<rect x="465.88" y="135.8" class="st2" width="34.57" height="40"/>
	</g>
	<g>
		<rect x="500.46" y="135.8" class="st2" width="34.57" height="40"/>
	</g>
	<g>
		<rect x="535.03" y="135.8" class="st2" width="34.57" height="40"/>
	</g>
	<g>
		<rect x="569.6" y="135.8" class="st2" width="34.57" height="40"/>
	</g>
	<g>
		<rect x="604.17" y="135.8" class="st2" width="34.57" height="40"/>
	</g>
	<g>
		<rect x="396.74" y="95.8" class="st2" width="34.57" height="40"/>
	</g>
	<g>
		<rect x="431.31" y="95.8" class="st2" width="34.57" height="40"/>
	</g>
	<g>
		<rect x="465.88" y="95.8" class="st2" width="34.57" height="40"/>
	</g>
	<g>
		<rect x="500.46" y="95.8" class="st2" width="34.57" height="40"/>
	</g>
	<g>
		<rect x="535.03" y="95.8" class="st2" width="34.57" height="40"/>
	</g>
	<g>
		<rect x="569.6" y="95.8" class="st2" width="34.57" height="40"/>
	</g>
	<g>
		<rect x="604.17" y="95.8" class="st2" width="34.57" height="40"/>
	</g>
</g>
<g>
	<rect x="392.74" y="50.8" class="st3" width="250" height="46"/>
</g>
<g>
	<path class="st0" d="M434.89,65.09c1.87-0.29,4.61-0.54,8.89-0.54c3.64,0,6.19,0.72,7.88,1.94c1.69,1.19,2.95,3.35,2.95,5.98
		c0,2.34-0.79,4.54-2.38,5.9c-2.09,1.84-5.04,2.66-8.78,2.66c-0.76,0-1.4-0.07-1.84-0.11v8.1h-6.73V65.09z M441.62,75.79
		c0.4,0.07,0.9,0.11,1.76,0.11c2.63,0,4.5-1.19,4.5-3.38c0-1.76-1.33-2.92-4.03-2.92c-1.15,0-1.87,0.07-2.23,0.14V75.79z"/>
	<path class="st0" d="M481.04,64.77h6.8v18.57h10.47v5.69h-17.28V64.77z"/>
	<path class="st0" d="M531.94,83.13l-1.55,5.9h-7.16l7.67-24.26h9.29l8.17,24.26h-7.56l-1.8-5.9H531.94z M537.96,78.16l-1.3-4.28
		c-0.43-1.37-0.94-3.13-1.37-4.54h-0.07c-0.4,1.4-0.76,3.17-1.15,4.57l-1.15,4.25H537.96z"/>
	<path class="st0" d="M574.71,89.03V64.77h8.53l4,7.02c1.55,2.7,3.06,6.01,4.28,9.18h0.11c-0.43-3.6-0.47-6.55-0.47-9.86v-6.33h6.3
		v24.26h-7.45L585.62,81c-1.55-2.81-3.28-6.08-4.68-9.4h-0.14c0.18,3.67,0.22,7.2,0.22,10.87v6.55H574.71z"/>
</g>
<g>
	<polygon class="st4" points="617.74,131.91 461.74,131.91 417.74,157.11 417.74,103.11 617.74,103.11 	"/>
</g>
<g>
	<polygon class="st4" points="617.74,131.91 417.74,247.11 417.74,214.71 617.74,103.11 	"/>
</g>
<g>
	<polygon class="st3" points="617.74,283.11 417.74,283.11 417.74,254.31 573.74,254.31 617.74,229.11 	"/>
</g>
<g>
	<polygon class="st3" points="617.74,169.45 417.74,283.11 417.74,254.31 617.74,137.05 	"/>
</g>
<g>
	<rect x="766.86" y="74.48" class="st3" width="192" height="33"/>
</g>
<g>
	<path class="st0" d="M799.23,85.87c1.44-0.22,3.54-0.41,6.83-0.41c2.79,0,4.76,0.55,6.06,1.49c1.3,0.91,2.27,2.57,2.27,4.59
		c0,1.8-0.61,3.48-1.83,4.53c-1.6,1.41-3.87,2.05-6.75,2.05c-0.58,0-1.08-0.06-1.41-0.08v6.22h-5.17V85.87z M804.4,94.08
		c0.3,0.06,0.69,0.08,1.35,0.08c2.02,0,3.46-0.91,3.46-2.6c0-1.35-1.02-2.24-3.1-2.24c-0.88,0-1.44,0.06-1.71,0.11V94.08z"/>
	<path class="st0" d="M834.67,85.62h5.23v14.27h8.05v4.37h-13.27V85.62z"/>
	<path class="st0" d="M873.77,99.73l-1.19,4.53h-5.5l5.89-18.64h7.13l6.28,18.64h-5.81l-1.38-4.53H873.77z M878.38,95.91l-1-3.29
		c-0.33-1.05-0.72-2.41-1.05-3.48h-0.06c-0.3,1.08-0.58,2.43-0.88,3.51l-0.88,3.26H878.38z"/>
	<path class="st0" d="M906.61,104.26V85.62h6.55l3.07,5.39c1.19,2.07,2.35,4.62,3.29,7.05h0.08c-0.33-2.76-0.36-5.03-0.36-7.58
		v-4.87h4.84v18.64h-5.72l-3.37-6.17c-1.19-2.16-2.52-4.67-3.59-7.22h-0.11c0.14,2.82,0.17,5.53,0.17,8.35v5.03H906.61z"/>
</g>
<g>
	<polygon class="st4" points="939.66,134.99 819.85,134.99 786.06,154.35 786.06,112.88 939.66,112.88 	"/>
</g>
<g>
	<polygon class="st4" points="939.66,134.99 786.06,223.47 786.06,198.58 939.66,112.88 	"/>
</g>
<g>
	<polygon class="st3" points="939.66,251.12 786.06,251.12 786.06,229 905.87,229 939.66,209.64 	"/>
</g>
<g>
	<polygon class="st3" points="939.66,163.83 786.06,251.12 786.06,229 939.66,138.94 	"/>
</g>
<g>
	<polygon class="st4" points="1091.37,111.39 1041.45,111.39 1027.37,120.35 1027.37,101.15 1091.37,101.15 	"/>
</g>
<g>
	<polygon class="st4" points="1091.37,111.39 1027.37,152.35 1027.37,140.83 1091.37,101.15 	"/>
</g>
<g>
	<polygon class="st3" points="1091.37,165.15 1027.37,165.15 1027.37,154.91 1077.29,154.91 1091.37,145.95 	"/>
</g>
<g>
	<polygon class="st3" points="1091.37,124.74 1027.37,165.15 1027.37,154.91 1091.37,113.22 	"/>
</g>
<g>
	<polygon class="st4" points="1197.78,113.54 1160.34,113.54 1149.78,120.26 1149.78,105.86 1197.78,105.86 	"/>
</g>
<g>
	<polygon class="st4" points="1197.78,113.54 1149.78,144.26 1149.78,135.62 1197.78,105.86 	"/>
</g>
<g>
	<polygon class="st3" points="1197.78,153.86 1149.78,153.86 1149.78,146.18 1187.22,146.18 1197.78,139.46 	"/>
</g>
<g>
	<polygon class="st3" points="1197.78,123.55 1149.78,153.86 1149.78,146.18 1197.78,114.91 	"/>
</g>
<g>
	<path d="M634.74,58.8v234h-234v-234H634.74 M642.74,50.8h-250v250h250V50.8L642.74,50.8z"/>
	<path class="st0" d="M638.74,54.8v242h-242v-242H638.74 M642.74,50.8h-250v250h250V50.8L642.74,50.8z"/>
</g>
<g>
	<rect x="50.61" y="60.8" class="st0" width="230" height="230"/>
</g>
<g>
	<g>
		<rect x="54.29" y="249.4" class="st2" width="31.81" height="36.8"/>
	</g>
	<g>
		<rect x="86.1" y="249.4" class="st2" width="31.81" height="36.8"/>
	</g>
	<g>
		<rect x="117.9" y="249.4" class="st2" width="31.81" height="36.8"/>
	</g>
	<g>
		<rect x="149.71" y="249.4" class="st2" width="31.81" height="36.8"/>
	</g>
	<g>
		<rect x="181.51" y="249.4" class="st2" width="31.81" height="36.8"/>
	</g>
	<g>
		<rect x="213.32" y="249.4" class="st2" width="31.81" height="36.8"/>
	</g>
	<g>
		<rect x="245.13" y="249.4" class="st2" width="31.81" height="36.8"/>
	</g>
	<g>
		<rect x="54.29" y="212.6" class="st2" width="31.81" height="36.8"/>
	</g>
	<g>
		<rect x="86.1" y="212.6" class="st2" width="31.81" height="36.8"/>
	</g>
	<g>
		<rect x="117.9" y="212.6" class="st2" width="31.81" height="36.8"/>
	</g>
	<g>
		<rect x="149.71" y="212.6" class="st2" width="31.81" height="36.8"/>
	</g>
	<g>
		<rect x="181.51" y="212.6" class="st2" width="31.81" height="36.8"/>
	</g>
	<g>
		<rect x="213.32" y="212.6" class="st2" width="31.81" height="36.8"/>
	</g>
	<g>
		<rect x="245.13" y="212.6" class="st2" width="31.81" height="36.8"/>
	</g>
	<g>
		<rect x="54.29" y="175.8" class="st2" width="31.81" height="36.8"/>
	</g>
	<g>
		<rect x="86.1" y="175.8" class="st2" width="31.81" height="36.8"/>
	</g>
	<g>
		<rect x="117.9" y="175.8" class="st2" width="31.81" height="36.8"/>
	</g>
	<g>
		<rect x="149.71" y="175.8" class="st2" width="31.81" height="36.8"/>
	</g>
	<g>
		<rect x="181.51" y="175.8" class="st2" width="31.81" height="36.8"/>
	</g>
	<g>
		<rect x="213.32" y="175.8" class="st2" width="31.81" height="36.8"/>
	</g>
	<g>
		<rect x="245.13" y="175.8" class="st2" width="31.81" height="36.8"/>
	</g>
	<g>
		<rect x="54.29" y="139" class="st2" width="31.81" height="36.8"/>
	</g>
	<g>
		<rect x="86.1" y="139" class="st2" width="31.81" height="36.8"/>
	</g>
	<g>
		<rect x="117.9" y="139" class="st2" width="31.81" height="36.8"/>
	</g>
	<g>
		<rect x="149.71" y="139" class="st2" width="31.81" height="36.8"/>
	</g>
	<g>
		<rect x="181.51" y="139" class="st2" width="31.81" height="36.8"/>
	</g>
	<g>
		<rect x="213.32" y="139" class="st2" width="31.81" height="36.8"/>
	</g>
	<g>
		<rect x="245.13" y="139" class="st2" width="31.81" height="36.8"/>
	</g>
	<g>
		<rect x="54.29" y="102.2" class="st2" width="31.81" height="36.8"/>
	</g>
	<g>
		<rect x="86.1" y="102.2" class="st2" width="31.81" height="36.8"/>
	</g>
	<g>
		<rect x="117.9" y="102.2" class="st2" width="31.81" height="36.8"/>
	</g>
	<g>
		<rect x="149.71" y="102.2" class="st2" width="31.81" height="36.8"/>
	</g>
	<g>
		<rect x="181.51" y="102.2" class="st2" width="31.81" height="36.8"/>
	</g>
	<g>
		<rect x="213.32" y="102.2" class="st2" width="31.81" height="36.8"/>
	</g>
	<g>
		<rect x="245.13" y="102.2" class="st2" width="31.81" height="36.8"/>
	</g>
</g>
<g>
	<rect x="50.61" y="60.8" class="st3" width="230" height="42.32"/>
</g>
<g>
	<path class="st0" d="M89.39,73.95c1.72-0.27,4.24-0.5,8.18-0.5c3.34,0,5.7,0.66,7.25,1.79c1.56,1.09,2.72,3.08,2.72,5.5
		c0,2.15-0.73,4.17-2.19,5.43c-1.92,1.69-4.64,2.45-8.08,2.45c-0.7,0-1.29-0.07-1.69-0.1v7.45h-6.19V73.95z M95.58,83.79
		c0.36,0.07,0.83,0.1,1.62,0.1c2.42,0,4.14-1.09,4.14-3.11c0-1.62-1.23-2.68-3.71-2.68c-1.06,0-1.72,0.07-2.05,0.13V83.79z"/>
	<path class="st0" d="M131.85,73.65h6.26v17.09h9.64v5.23h-15.9V73.65z"/>
	<path class="st0" d="M178.68,90.54l-1.42,5.43h-6.59l7.05-22.32h8.54l7.52,22.32h-6.95l-1.66-5.43H178.68z M184.21,85.97
		l-1.19-3.94c-0.4-1.26-0.86-2.88-1.26-4.17h-0.07c-0.36,1.29-0.7,2.91-1.06,4.21l-1.06,3.91H184.21z"/>
	<path class="st0" d="M218.02,95.97V73.65h7.85l3.68,6.46c1.42,2.48,2.81,5.53,3.94,8.44h0.1c-0.4-3.31-0.43-6.03-0.43-9.07v-5.83
		h5.8v22.32h-6.86l-4.04-7.38c-1.42-2.58-3.01-5.6-4.31-8.64h-0.13c0.17,3.38,0.2,6.62,0.2,10v6.03H218.02z"/>
</g>
<g>
	<polygon class="st4" points="257.61,135.42 114.09,135.42 73.61,158.6 73.61,108.92 257.61,108.92 	"/>
</g>
<g>
	<polygon class="st4" points="257.61,135.42 73.61,241.4 73.61,211.6 257.61,108.92 	"/>
</g>
<g>
	<polygon class="st3" points="257.61,274.52 73.61,274.52 73.61,248.03 217.13,248.03 257.61,224.84 	"/>
</g>
<g>
	<polygon class="st3" points="257.61,169.96 73.61,274.52 73.61,248.03 257.61,140.15 	"/>
</g>
<g>
	<path d="M272.61,68.8v214h-214v-214H272.61 M280.61,60.8h-230v230h230V60.8L280.61,60.8z"/>
	<path class="st0" d="M276.61,64.8v222h-222v-222H276.61 M280.61,60.8h-230v230h230V60.8L280.61,60.8z"/>
</g>
<g>
	<path d="M950.86,82.48v176h-176v-176H950.86 M958.86,74.48h-192v192h192V74.48L958.86,74.48z"/>
	<path class="st0" d="M954.86,78.48v184h-184v-184H954.86 M958.86,74.48h-192v192h192V74.48L958.86,74.48z"/>
</g>
</svg>
