<?xml version="1.0" encoding="UTF-8" standalone="no"?>
<!-- Created with Inkscape (http://www.inkscape.org/) -->

<svg
   version="1.1"
   id="svg840"
   xml:space="preserve"
   width="360"
   height="360"
   viewBox="0 0 360 360"
   sodipodi:docname="WisConGenericLogoStacked.svg"
   inkscape:version="1.1.1 (c3084ef, 2021-09-22)"
   xmlns:inkscape="http://www.inkscape.org/namespaces/inkscape"
   xmlns:sodipodi="http://sodipodi.sourceforge.net/DTD/sodipodi-0.dtd"
   xmlns="http://www.w3.org/2000/svg"
   xmlns:svg="http://www.w3.org/2000/svg"><defs
     id="defs844"><clipPath
       clipPathUnits="userSpaceOnUse"
       id="clipPath854"><path
         d="M 0,288 H 270 V 0 H 0 Z"
         id="path852" /></clipPath></defs><sodipodi:namedview
     id="namedview842"
     pagecolor="#ffffff"
     bordercolor="#666666"
     borderopacity="1.0"
     inkscape:pageshadow="2"
     inkscape:pageopacity="0.0"
     inkscape:pagecheckerboard="0"
     showgrid="false"
     inkscape:zoom="1.5208333"
     inkscape:cx="179.83562"
     inkscape:cy="192"
     inkscape:window-width="1920"
     inkscape:window-height="1080"
     inkscape:window-x="2515"
     inkscape:window-y="42"
     inkscape:window-maximized="0"
     inkscape:current-layer="g846" /><g
     id="g846"
     inkscape:groupmode="layer"
     inkscape:label="WisConGenericLogoStacked"
     transform="matrix(1.3333333,0,0,-1.3333333,0,384)"><g
       id="g856"
       transform="translate(52.4902,260.7514)"
       style="fill:#d0d0d0;fill-opacity:1"><path
         d="m 0,0 -8.342,-54.568 h 0.729 c 2.636,5.578 5.48,11.398 8.924,16.855 L 24.738,0 h 25.465 l -7.371,-54.568 h 0.727 c 2.427,5.336 5.064,10.914 8.175,16.127 L 74.941,0 h 34.561 L 43.967,-91.434 H 14.984 l 7.668,49.719 h -1.091 c -2.084,-4.73 -4.006,-9.338 -6.731,-13.824 L -7.449,-91.434 H -35.705 L -34.441,0 Z"
         style="fill:#d0d0d0;fill-opacity:1;fill-rule:nonzero;stroke:none"
         id="path858" /></g><g
       id="g860"
       transform="translate(194.7285,253.5971)"
       style="fill:#d0d0d0;fill-opacity:1"><path
         d="m 0,0 c -3.84,-10.551 -13.764,-15.158 -22.736,-15.158 -8.975,0 -15.543,4.607 -11.703,15.158 3.398,9.338 12.869,15.037 22.693,15.037 C -1.924,15.037 3.398,9.338 0,0 m -40.102,-19.887 h 31.286 l -23.436,-64.392 h -31.285 z"
         style="fill:#d0d0d0;fill-opacity:1;fill-rule:nonzero;stroke:none"
         id="path862" /></g><g
       id="g864"
       transform="translate(183.373,194.4193)"
       style="fill:#d0d0d0;fill-opacity:1"><path
         d="m 0,0 1.498,-1.213 c 3.395,-2.668 8.51,-5.941 13.846,-5.941 2.062,0 5.004,1.091 5.886,3.515 1.282,3.518 -2.433,3.639 -4.847,4.002 -9.899,1.455 -18.057,5.7 -13.645,17.826 5.871,16.129 24.461,22.555 38.285,22.555 8.004,0 17.375,-1.576 22.995,-5.457 L 49.891,17.463 c -2.942,2.91 -7.395,5.336 -12.489,5.336 -1.941,0 -4.709,-0.606 -5.547,-2.912 -1.148,-3.153 2.161,-3.397 6.26,-4.123 10.496,-1.819 18.178,-5.7 13.455,-18.674 -6.091,-16.735 -25.22,-23.647 -39.773,-23.647 -10.186,0 -18.981,3.153 -26.863,7.153 z"
         style="fill:#d0d0d0;fill-opacity:1;fill-rule:nonzero;stroke:none"
         id="path866" /></g><g
       id="g868"
       transform="translate(100.7563,145.3114)"
       style="fill:#d0d0d0;fill-opacity:1"><path
         d="m 0,0 c -3.527,4.973 -8.652,9.216 -16.17,9.216 -9.943,0 -20.939,-7.88 -24.557,-17.825 -3.662,-10.067 2.122,-17.827 12.065,-17.827 7.641,0 14.894,3.274 22.131,8.489 l -13.418,-34.198 c -6.264,-2.546 -19.031,-3.636 -24.969,-3.636 -26.074,0 -39.078,20.25 -29.588,46.324 9.711,26.675 38.459,48.019 65.256,48.019 7.52,0 14.795,-1.332 20.947,-3.758 z"
         style="fill:#d0d0d0;fill-opacity:1;fill-rule:nonzero;stroke:none"
         id="path870" /></g><g
       id="g872"
       transform="translate(214.6504,145.0692)"
       style="fill:#d0d0d0;fill-opacity:1"><path
         d="m 0,0 h 0.727 c 8.625,7.033 14.953,11.761 25.015,11.761 16.008,0 17.946,-12.003 12.781,-26.191 L 24.09,-54.084 H -7.195 l 11.429,31.408 c 1.37,3.758 3.313,9.094 -2.023,9.094 -5.215,0 -7.156,-5.336 -8.525,-9.094 l -11.432,-31.408 h -31.285 l 23.433,64.392 H 4.961 Z"
         style="fill:#d0d0d0;fill-opacity:1;fill-rule:nonzero;stroke:none"
         id="path874" /></g><g
       id="g876"
       transform="translate(120.417,122.4149)"
       style="fill:#d0d0d0;fill-opacity:1"><path
         d="m 0,0 c -2.561,-8.107 0.852,-14.344 10.117,-14.344 9.262,0 16.61,6.237 19.168,14.344 C 31.766,7.859 28.471,14.469 19.207,14.469 9.943,14.469 2.479,7.859 0,0 M 11.543,-32.063 5.525,-48.6 H 23.754 L 17.117,-66.824 H -1.107 l -6.635,-18.225 h -18.227 l 6.637,18.225 h -18.227 l 6.633,18.224 h 18.227 l 6.004,16.498 c -15.364,2.928 -24.969,13.963 -18.377,32.075 8.209,22.554 30.361,34.438 51.584,34.438 21.218,0 34.718,-11.884 26.509,-34.438 -6.56,-18.028 -24.068,-29.045 -41.478,-32.036"
         style="fill:#d0d0d0;fill-opacity:1;fill-rule:nonzero;stroke:none"
         id="path878" /></g></g></svg>
